# xmcd
#
# Track frame offsets: 
#        150
#        15014
#        30572
#        49608
#        67505
#        85051
#        113148
#        128702
#        144545
#        161659
#        165481
#
# Disc length: 2443 seconds
#
# Revision: 0
# Processed by: cddbd v1.5.2PL0 Copyright (c) Steve Scherf et al.
# Submitted via: ExactAudioCopy v0.90b4
#
DISCID=7509890b
DTITLE=Scott Holt - KUDZU
DYEAR=2010
DGENRE=Blues
TTITLE0=Living in Fear
TTITLE1=Matter of Time
TTITLE2=Girl From '84
TTITLE3=Outlines
TTITLE4=Wicked Grip
TTITLE5=The Fool
TTITLE6=S and M
TTITLE7=That Girl
TTITLE8=What I Want
TTITLE9=KUDZU (Interlude)
TTITLE10=KUDZU
EXTD=
EXTT0=
EXTT1=
EXTT2=
EXTT3=
EXTT4=
EXTT5=
EXTT6=
EXTT7=
EXTT8=
EXTT9=
EXTT10=
PLAYORDER=
